<svg xmlns="http://www.w3.org/2000/svg" viewBox="0 0 357.33 357.31"><defs><style>.cls-1,.cls-3{fill:#fc0;}.cls-2{fill:#f90;}.cls-2,.cls-3{fill-rule:evenodd;}</style></defs><g id="Layer_2" data-name="Layer 2"><g id="Layer_1-2" data-name="Layer 1"><path class="cls-1" d="M178.66,49.76V97.25a23.76,23.76,0,0,1,0-47.49Z"/><path class="cls-1" d="M178.66,154.91V202.4a23.76,23.76,0,0,1,0-47.49Z"/><path class="cls-1" d="M178.66,261.16v47.5a23.76,23.76,0,0,1,0-47.5Z"/><path class="cls-1" d="M353.62,165.53v26.26a25,25,0,0,1-3.63,4.59l-136,136H146.53V303.79l17.4,17.4a20.75,20.75,0,0,0,14.73,6.11V308.66H179a23.75,23.75,0,0,0,0-47.5c-.12,0-.23,0-.35,0V202.4H179a23.75,23.75,0,0,0,0-47.49h-.35V97.25h.23a.48.48,0,0,0,.12,0,23.75,23.75,0,0,0,0-47.49h-.35V30a20.72,20.72,0,0,0-14.73,6.1l-17.4,17.4V21.74L160.94,7.33a25.08,25.08,0,0,1,35.44,0L350,160.94A25,25,0,0,1,353.62,165.53Z"/><path class="cls-2" d="M202.76,178.66A23.76,23.76,0,1,1,179,154.9,23.75,23.75,0,0,1,202.76,178.66Z"/><path class="cls-2" d="M202.76,73.51A23.76,23.76,0,1,1,179,49.75,23.75,23.75,0,0,1,202.76,73.51Z"/><path class="cls-2" d="M202.76,284.92A23.76,23.76,0,1,1,179,261.15,23.75,23.75,0,0,1,202.76,284.92Z"/><path class="cls-2" d="M178.66,154.91V202.4a23.76,23.76,0,0,1,0-47.49Z"/><path class="cls-2" d="M203.21,178.66a23.75,23.75,0,0,1-23.76,23.75H179a23.75,23.75,0,0,0,0-47.49,3.17,3.17,0,0,1,.44,0A23.77,23.77,0,0,1,203.21,178.66Z"/><path class="cls-2" d="M178.66,49.76V97.25a23.76,23.76,0,0,1,0-47.49Z"/><path class="cls-2" d="M203.21,73.51a23.75,23.75,0,0,1-23.76,23.75H179a23.75,23.75,0,0,0,0-47.49h.44A23.76,23.76,0,0,1,203.21,73.51Z"/><path class="cls-2" d="M178.66,261.16v47.5a23.76,23.76,0,0,1,0-47.5Z"/><path class="cls-2" d="M203.21,284.92a23.75,23.75,0,0,1-23.76,23.75H179a23.75,23.75,0,0,0,0-47.5h.44A23.76,23.76,0,0,1,203.21,284.92Z"/><path class="cls-2" d="M308.42,178.66a23.76,23.76,0,1,1-23.75-23.76A23.76,23.76,0,0,1,308.42,178.66Z"/><path class="cls-3" d="M96.43,178.66a23.76,23.76,0,1,1-23.76-23.77A23.75,23.75,0,0,1,96.43,178.66Z"/><path class="cls-3" d="M353.62,165.53a25,25,0,0,0-3.63-4.59L196.38,7.33a25.08,25.08,0,0,0-35.44,0L7.34,160.93a25.05,25.05,0,0,0,0,35.44L161,350a25.08,25.08,0,0,0,35.44,0L214,332.37l136-136a25,25,0,0,0,3.63-30.85ZM321.2,193.41,193.41,321.19a20.83,20.83,0,0,1-29.48,0l-17.4-17.4L36.13,193.39a20.86,20.86,0,0,1,0-29.48L163.93,36.12a20.86,20.86,0,0,1,29.48,0L321.2,163.91A20.87,20.87,0,0,1,321.2,193.41Z"/><path class="cls-3" d="M178.66,202.4h0a23.76,23.76,0,0,1,0-47.52h0a1.94,1.94,0,0,1,.34,0,2,2,0,0,0-.35,0Z"/><path class="cls-3" d="M178.66,97.25c.12,0,.23,0,.35,0h-.35a23.76,23.76,0,0,1,0-47.51h0Z"/><path class="cls-3" d="M178.66,308.66h0a23.76,23.76,0,0,1,0-47.52H179c-.12,0-.23,0-.35,0Z"/></g></g></svg>