<svg xmlns="http://www.w3.org/2000/svg" viewBox="0 0 519.08 389.31"><defs><style>.cls-1{fill:#fc0;}</style></defs><g id="Layer_2" data-name="Layer 2"><g id="Layer_1-2" data-name="Layer 1"><circle class="cls-1" cx="95.62" cy="88.79" r="13.66"/><circle class="cls-1" cx="95.62" cy="13.66" r="13.66"/><circle class="cls-1" cx="95.62" cy="157.09" r="13.66"/><circle class="cls-1" cx="95.62" cy="232.22" r="13.66"/><circle class="cls-1" cx="95.62" cy="307.35" r="13.66"/><circle class="cls-1" cx="95.62" cy="375.65" r="13.66"/><circle class="cls-1" cx="13.66" cy="88.79" r="13.66"/><circle class="cls-1" cx="13.66" cy="13.66" r="13.66"/><circle class="cls-1" cx="13.66" cy="157.09" r="13.66"/><circle class="cls-1" cx="13.66" cy="232.22" r="13.66"/><circle class="cls-1" cx="13.66" cy="307.35" r="13.66"/><circle class="cls-1" cx="13.66" cy="375.65" r="13.66"/><circle class="cls-1" cx="177.58" cy="88.79" r="13.66"/><circle class="cls-1" cx="177.58" cy="13.66" r="13.66"/><circle class="cls-1" cx="177.58" cy="157.09" r="13.66"/><circle class="cls-1" cx="177.58" cy="232.22" r="13.66"/><circle class="cls-1" cx="177.58" cy="307.35" r="13.66"/><circle class="cls-1" cx="177.58" cy="375.65" r="13.66"/><circle class="cls-1" cx="259.54" cy="88.79" r="13.66"/><circle class="cls-1" cx="259.54" cy="13.66" r="13.66"/><circle class="cls-1" cx="259.54" cy="157.09" r="13.66"/><circle class="cls-1" cx="259.54" cy="232.22" r="13.66"/><circle class="cls-1" cx="259.54" cy="307.35" r="13.66"/><circle class="cls-1" cx="259.54" cy="375.65" r="13.66"/><circle class="cls-1" cx="341.5" cy="88.79" r="13.66"/><circle class="cls-1" cx="341.5" cy="13.66" r="13.66"/><circle class="cls-1" cx="341.5" cy="157.09" r="13.66"/><circle class="cls-1" cx="341.5" cy="232.22" r="13.66"/><circle class="cls-1" cx="341.5" cy="307.35" r="13.66"/><circle class="cls-1" cx="341.5" cy="375.65" r="13.66"/><circle class="cls-1" cx="423.46" cy="88.79" r="13.66"/><circle class="cls-1" cx="423.46" cy="13.66" r="13.66"/><circle class="cls-1" cx="423.46" cy="157.09" r="13.66"/><circle class="cls-1" cx="423.46" cy="232.22" r="13.66"/><circle class="cls-1" cx="423.46" cy="307.35" r="13.66"/><circle class="cls-1" cx="423.46" cy="375.65" r="13.66"/><circle class="cls-1" cx="505.42" cy="88.79" r="13.66"/><circle class="cls-1" cx="505.42" cy="13.66" r="13.66"/><circle class="cls-1" cx="505.42" cy="157.09" r="13.66"/><circle class="cls-1" cx="505.42" cy="232.22" r="13.66"/><circle class="cls-1" cx="505.42" cy="307.35" r="13.66"/><circle class="cls-1" cx="505.42" cy="375.65" r="13.66"/></g></g></svg>